<svg width="129" height="131" viewBox="0 0 129 131" fill="none" xmlns="http://www.w3.org/2000/svg">
<path d="M64.5 0C27.0177 0 0 27.0376 0 64.1666C0 101.676 27.0177 128.143 64.5 128.143H68.115C76.1062 128.143 82.7655 122.621 82.5752 113.672C82.385 104.723 75.9159 99.0108 68.115 99.0108H64.5C44.5221 99.0108 30.823 84.3496 30.823 64.1666C30.823 44.174 44.5221 28.9416 64.5 28.9416C84.6681 28.9416 98.177 44.174 98.177 64.1666C98.177 68.5459 97.0354 74.2581 96.0841 77.495C93.8009 86.0632 97.9867 92.3466 107.119 94.8219C116.252 96.9163 123.673 93.6794 125.765 85.1112C128.239 76.7334 129 70.45 129 64.1666C129 26.8471 101.982 0 64.5 0ZM115.23 126.62C121.128 120.527 120.937 111.958 114.659 105.485C108.57 99.2012 99.4375 99.2012 93.349 105.294C87.2605 111.387 87.641 120.146 93.9198 126.239C100.389 132.522 109.141 132.522 115.23 126.62Z" fill="#E9E9E9"/>
</svg>
