<svg width="144" height="144" viewBox="0 0 144 144" fill="none" xmlns="http://www.w3.org/2000/svg">
<g clip-path="url(#clip0_332_37)">
<rect width="144" height="144" fill="#1D1D1D"/>
<rect width="72" height="72" fill="#E6E6E6"/>
<rect x="72" width="72" height="72" fill="#F2F2F2"/>
<rect y="72" width="72" height="72" fill="#F2F2F2"/>
<rect x="72" y="72" width="72" height="72" fill="#E6E6E6"/>
<path d="M34.5 12C20.8437 12 11 21.9069 11 35.5114C11 49.2555 20.8437 58.9531 34.5 58.9531H35.8171C38.7286 58.9531 41.1549 56.9298 41.0855 53.6508C41.0162 50.3718 38.6593 48.2788 35.8171 48.2788H34.5C27.2212 48.2788 22.2301 42.9067 22.2301 35.5114C22.2301 28.1859 27.2212 22.6046 34.5 22.6046C41.8481 22.6046 46.7699 28.1859 46.7699 35.5114C46.7699 37.1161 46.354 39.2091 46.0074 40.3951C45.1755 43.5346 46.7006 45.8369 50.028 46.7439C53.3555 47.5113 56.059 46.3253 56.8215 43.1858C57.7227 40.116 58 37.8137 58 35.5114C58 21.8371 48.1563 12 34.5 12ZM52.9828 58.3949C55.1318 56.1624 55.0625 53.0229 52.7749 50.6508C50.5566 48.3485 47.2292 48.3485 45.0109 50.5811C42.7926 52.8136 42.9312 56.0229 45.2188 58.2554C47.5758 60.5577 50.7646 60.5577 52.9828 58.3949Z" fill="#D3D3D3" fill-opacity="0.5"/>
<path d="M107.5 84C93.8437 84 84 93.9069 84 107.511C84 121.255 93.8437 130.953 107.5 130.953H108.817C111.729 130.953 114.155 128.93 114.086 125.651C114.016 122.372 111.659 120.279 108.817 120.279H107.5C100.221 120.279 95.2301 114.907 95.2301 107.511C95.2301 100.186 100.221 94.6046 107.5 94.6046C114.848 94.6046 119.77 100.186 119.77 107.511C119.77 109.116 119.354 111.209 119.007 112.395C118.176 115.535 119.701 117.837 123.028 118.744C126.355 119.511 129.059 118.325 129.822 115.186C130.723 112.116 131 109.814 131 107.511C131 93.8371 121.156 84 107.5 84ZM125.983 130.395C128.132 128.162 128.062 125.023 125.775 122.651C123.557 120.349 120.229 120.349 118.011 122.581C115.793 124.814 115.931 128.023 118.219 130.255C120.576 132.558 123.765 132.558 125.983 130.395Z" fill="#D3D3D3" fill-opacity="0.5"/>
<path d="M108.5 12C94.8437 12 85 21.9069 85 35.5114C85 49.2555 94.8437 58.9531 108.5 58.9531H109.817C112.729 58.9531 115.155 56.9298 115.086 53.6508C115.016 50.3718 112.659 48.2788 109.817 48.2788H108.5C101.221 48.2788 96.2301 42.9067 96.2301 35.5114C96.2301 28.1859 101.221 22.6046 108.5 22.6046C115.848 22.6046 120.77 28.1859 120.77 35.5114C120.77 37.1161 120.354 39.2091 120.007 40.3951C119.176 43.5346 120.701 45.8369 124.028 46.7439C127.355 47.5113 130.059 46.3253 130.822 43.1858C131.723 40.116 132 37.8137 132 35.5114C132 21.8371 122.156 12 108.5 12ZM126.983 58.3949C129.132 56.1624 129.062 53.0229 126.775 50.6508C124.557 48.3485 121.229 48.3485 119.011 50.5811C116.793 52.8136 116.931 56.0229 119.219 58.2554C121.576 60.5577 124.765 60.5577 126.983 58.3949Z" fill="#E2E2E2" fill-opacity="0.5"/>
<path d="M34.5 84C20.8437 84 11 93.9069 11 107.511C11 121.255 20.8437 130.953 34.5 130.953H35.8171C38.7286 130.953 41.1549 128.93 41.0855 125.651C41.0162 122.372 38.6593 120.279 35.8171 120.279H34.5C27.2212 120.279 22.2301 114.907 22.2301 107.511C22.2301 100.186 27.2212 94.6046 34.5 94.6046C41.8481 94.6046 46.7699 100.186 46.7699 107.511C46.7699 109.116 46.354 111.209 46.0074 112.395C45.1755 115.535 46.7006 117.837 50.028 118.744C53.3555 119.511 56.059 118.325 56.8215 115.186C57.7227 112.116 58 109.814 58 107.511C58 93.8371 48.1563 84 34.5 84ZM52.9828 130.395C55.1318 128.162 55.0625 125.023 52.7749 122.651C50.5566 120.349 47.2292 120.349 45.0109 122.581C42.7926 124.814 42.9312 128.023 45.2188 130.255C47.5758 132.558 50.7646 132.558 52.9828 130.395Z" fill="#E2E2E2" fill-opacity="0.5"/>
<rect x="0.5" y="0.5" width="143" height="143" rx="14.5" stroke="#D3D3D3"/>
<path d="M18.165 83.74C18.165 78.6733 20.1383 74.7 24.085 71.82V71.66C20.9383 69.0467 19.365 65.5267 19.365 61.1C19.365 56.46 21.0717 52.54 24.485 49.34C27.9517 46.14 32.565 44.54 38.325 44.54C44.085 44.54 48.6717 46.14 52.085 49.34C55.5517 52.54 57.285 56.46 57.285 61.1C57.285 65.5267 55.7117 69.0467 52.565 71.66V71.82C56.5117 74.7 58.485 78.6733 58.485 83.74C58.485 88.9667 56.565 93.1267 52.725 96.22C48.885 99.3133 44.085 100.86 38.325 100.86C32.565 100.86 27.765 99.3133 23.925 96.22C20.085 93.1267 18.165 88.9667 18.165 83.74ZM35.285 64.54C36.085 65.2867 37.0983 65.66 38.325 65.66C39.5517 65.66 40.565 65.2867 41.365 64.54C42.165 63.74 42.565 62.7267 42.565 61.5C42.565 60.2733 42.165 59.2867 41.365 58.54C40.565 57.74 39.5517 57.34 38.325 57.34C37.0983 57.34 36.085 57.74 35.285 58.54C34.485 59.2867 34.085 60.2733 34.085 61.5C34.085 62.7267 34.485 63.74 35.285 64.54ZM34.645 79.58C33.685 80.4867 33.205 81.66 33.205 83.1C33.205 84.54 33.685 85.74 34.645 86.7C35.6583 87.6067 36.885 88.06 38.325 88.06C39.765 88.06 40.965 87.6067 41.925 86.7C42.9383 85.74 43.445 84.54 43.445 83.1C43.445 81.66 42.9383 80.4867 41.925 79.58C40.965 78.62 39.765 78.14 38.325 78.14C36.885 78.14 35.6583 78.62 34.645 79.58Z" fill="#C5C8C3"/>
<path d="M64.67 99.1V86.3C64.67 85.7667 64.9367 85.5 65.47 85.5H78.27C78.8033 85.5 79.07 85.7667 79.07 86.3V99.1C79.07 99.6333 78.8033 99.9 78.27 99.9H65.47C64.9367 99.9 64.67 99.6333 64.67 99.1Z" fill="#C5C8C3"/>
<path d="M85.7562 92.7C85.2229 92.7 84.9563 92.4333 84.9563 91.9V79.26C84.9563 78.8867 85.0096 78.5933 85.1162 78.38L98.4762 46.14C98.6362 45.7133 99.0363 45.5 99.6763 45.5H115.036C115.676 45.5 115.863 45.7933 115.596 46.38L101.836 78.86V79.1H106.716C107.036 79.1 107.196 78.94 107.196 78.62V71.42C107.196 70.8867 107.463 70.62 107.996 70.62H121.436C121.97 70.62 122.236 70.8867 122.236 71.42V78.62C122.236 78.94 122.37 79.1 122.636 79.1H125.276C125.81 79.1 126.076 79.3667 126.076 79.9V91.9C126.076 92.4333 125.81 92.7 125.276 92.7H122.716C122.396 92.7 122.236 92.86 122.236 93.18V99.1C122.236 99.6333 121.97 99.9 121.436 99.9H107.996C107.463 99.9 107.196 99.6333 107.196 99.1V93.18C107.196 92.86 107.036 92.7 106.716 92.7H85.7562Z" fill="#C5C8C3"/>
<path d="M18 80.75C18 76 19.85 72.275 23.55 69.575V69.425C20.6 66.975 19.125 63.675 19.125 59.525C19.125 55.175 20.725 51.5 23.925 48.5C27.175 45.5 31.5 44 36.9 44C42.3 44 46.6 45.5 49.8 48.5C53.05 51.5 54.675 55.175 54.675 59.525C54.675 63.675 53.2 66.975 50.25 69.425V69.575C53.95 72.275 55.8 76 55.8 80.75C55.8 85.65 54 89.55 50.4 92.45C46.8 95.35 42.3 96.8 36.9 96.8C31.5 96.8 27 95.35 23.4 92.45C19.8 89.55 18 85.65 18 80.75ZM34.05 62.75C34.8 63.45 35.75 63.8 36.9 63.8C38.05 63.8 39 63.45 39.75 62.75C40.5 62 40.875 61.05 40.875 59.9C40.875 58.75 40.5 57.825 39.75 57.125C39 56.375 38.05 56 36.9 56C35.75 56 34.8 56.375 34.05 57.125C33.3 57.825 32.925 58.75 32.925 59.9C32.925 61.05 33.3 62 34.05 62.75ZM33.45 76.85C32.55 77.7 32.1 78.8 32.1 80.15C32.1 81.5 32.55 82.625 33.45 83.525C34.4 84.375 35.55 84.8 36.9 84.8C38.25 84.8 39.375 84.375 40.275 83.525C41.225 82.625 41.7 81.5 41.7 80.15C41.7 78.8 41.225 77.7 40.275 76.85C39.375 75.95 38.25 75.5 36.9 75.5C35.55 75.5 34.4 75.95 33.45 76.85Z" fill="#3F4B38"/>
<path d="M61.5984 95.15V83.15C61.5984 82.65 61.8484 82.4 62.3484 82.4H74.3484C74.8484 82.4 75.0984 82.65 75.0984 83.15V95.15C75.0984 95.65 74.8484 95.9 74.3484 95.9H62.3484C61.8484 95.9 61.5984 95.65 61.5984 95.15Z" fill="#3F4B38"/>
<path d="M81.3668 89.15C80.8668 89.15 80.6168 88.9 80.6168 88.4V76.55C80.6168 76.2 80.6668 75.925 80.7668 75.725L93.2918 45.5C93.4418 45.1 93.8168 44.9 94.4168 44.9H108.817C109.417 44.9 109.592 45.175 109.342 45.725L96.4418 76.175V76.4H101.017C101.317 76.4 101.467 76.25 101.467 75.95V69.2C101.467 68.7 101.717 68.45 102.217 68.45H114.817C115.317 68.45 115.567 68.7 115.567 69.2V75.95C115.567 76.25 115.692 76.4 115.942 76.4H118.417C118.917 76.4 119.167 76.65 119.167 77.15V88.4C119.167 88.9 118.917 89.15 118.417 89.15H116.017C115.717 89.15 115.567 89.3 115.567 89.6V95.15C115.567 95.65 115.317 95.9 114.817 95.9H102.217C101.717 95.9 101.467 95.65 101.467 95.15V89.6C101.467 89.3 101.317 89.15 101.017 89.15H81.3668Z" fill="#3F4B38"/>
</g>
<defs>
<clipPath id="clip0_332_37">
<rect width="144" height="144" rx="15" fill="white"/>
</clipPath>
</defs>
</svg>
