<svg width="132" height="26" viewBox="0 0 132 26" fill="none" xmlns="http://www.w3.org/2000/svg">
<path d="M10.6573 2.40955C4.46411 2.40955 0 6.87365 0 13.0039C0 19.1971 4.46411 23.5669 10.6573 23.5669H11.2546C12.5749 23.5669 13.6753 22.6552 13.6438 21.1777C13.6124 19.7001 12.5435 18.757 11.2546 18.757H10.6573C7.35634 18.757 5.09285 16.3363 5.09285 13.0039C5.09285 9.70301 7.35634 7.18803 10.6573 7.18803C13.9896 7.18803 16.2217 9.70301 16.2217 13.0039C16.2217 13.727 16.0331 14.6701 15.8759 15.2046C15.4986 16.6192 16.1902 17.6567 17.6992 18.0654C19.2082 18.4112 20.4343 17.8767 20.7801 16.462C21.1888 15.0788 21.3145 14.0414 21.3145 13.0039C21.3145 6.84221 16.8504 2.40955 10.6573 2.40955ZM18.8762 23.1327C19.8507 22.1267 19.8507 20.6805 18.8133 19.6117C17.8073 18.5742 16.2983 18.5742 15.2923 19.5802C14.2863 20.5862 14.3178 22.0638 15.3552 23.0698C16.4241 24.1072 17.8702 24.1072 18.8762 23.1327Z" fill="#6D6D6D"/>
<path d="M33.513 7.31378C33.2615 7.2509 32.9157 7.18803 32.4755 7.18803C30.8408 7.18803 29.2375 8.09971 28.5773 9.51439H28.4201V9.32577C28.1372 8.09971 27.2884 7.43953 26.1881 7.43953C24.7419 7.43953 23.7359 8.53983 23.7359 10.0174V20.769C23.7359 22.2465 24.7419 23.3154 26.1881 23.3154C27.6342 23.3154 28.6716 22.2465 28.6716 20.769V17.2794C28.6716 13.3183 29.7405 11.9665 31.5639 11.9665C31.9725 11.9665 32.3812 12.0294 32.6327 12.0923C34.1103 12.4695 35.2106 11.6836 35.4306 10.2375C35.6507 8.82277 34.8333 7.62815 33.513 7.31378Z" fill="#6D6D6D"/>
<path fill-rule="evenodd" clip-rule="evenodd" d="M65.4414 4.96477L44.4062 0L39.4414 21.0352L60.4766 26L65.4414 4.96477ZM56.0521 10.5102L49.9517 9.07033L48.5118 15.1707L54.6122 16.6106L56.0521 10.5102Z" fill="#6D6D6D"/>
<path d="M85.0117 8.61636C86.222 9.74037 87.3048 9.83672 88.4832 8.64848C89.6298 7.52446 89.7572 6.33622 88.6425 5.05163C87.273 3.41378 84.3747 2.19342 81.1262 2.19342C74.8838 2.19342 70.6161 6.9464 70.6161 12.984C70.6161 18.9252 74.9157 23.8066 81.0306 23.8066C84.4384 23.8066 87.4004 22.5541 88.8972 20.8521C89.9801 19.5354 89.9801 18.1865 88.8654 17.0946C87.6551 15.9064 86.3812 16.1312 85.1709 17.2873C84.3747 18.026 83.3237 18.9252 81.3173 18.9252C77.782 18.9252 75.7756 16.1312 75.7756 12.9197C75.7756 9.70826 77.7502 7.07485 81.2854 7.07485C83.2919 7.07485 84.2792 7.94195 85.0117 8.61636Z" fill="#6D6D6D"/>
<path d="M110.486 19.9528L103.638 4.02396C103.097 2.8036 102.205 2.19342 101.122 2.19342C100.071 2.19342 99.1796 2.8036 98.6382 4.02396L91.7908 19.9528C91.1856 21.3659 91.7907 22.7789 93.1921 23.357C94.5616 23.9351 95.9948 23.2607 96.5362 21.8155L101.122 9.70826L105.74 21.8155C106.282 23.2607 107.715 23.9351 109.085 23.357C110.454 22.7789 111.091 21.3659 110.486 19.9528ZM101.154 17.2231H101.091C99.8803 17.2231 99.116 17.8654 99.116 19.15C99.116 20.4346 99.8803 21.0769 101.091 21.0769H101.154C102.396 21.0769 103.161 20.4346 103.161 19.15C103.161 17.8654 102.396 17.2231 101.154 17.2231Z" fill="#6D6D6D"/>
<path d="M121.271 2.45034H115.411C113.914 2.45034 112.863 3.60647 112.863 5.11586V20.8842C112.863 22.3936 113.914 23.5497 115.411 23.5497C116.907 23.5497 117.958 22.3936 117.958 20.8842V7.29966H121.271C124.71 7.29966 126.43 9.03385 126.43 12.9197C126.43 16.0991 125.347 18.7004 122.258 18.7004H121.876C120.411 18.7004 119.36 19.6959 119.36 21.1411C119.36 22.5541 120.411 23.5497 121.876 23.5497H122.258C127.545 23.5497 131.526 19.6317 131.526 12.8876C131.526 6.04718 127.418 2.45034 121.271 2.45034Z" fill="#6D6D6D"/>
</svg>
